# xmcd
#
# Track frame offsets: 
#        150
#        13361
#        29311
#        36578
#        55958
#
# Disc length: 937 seconds
#
# Revision: 0
# Processed by: cddbd v1.5.2PL0 Copyright (c) Steve Scherf et al.
# Submitted via: ExactAudioCopy v0.99pb4
#
DISCID=4203a705
DTITLE=Wolfgang Scholtz - W.S. Plays P.G.
DYEAR=2011
DGENRE=Blues
TTITLE0=Albatros
TTITLE1=Fool No More
TTITLE2=Jigsawpuzzle Blues
TTITLE3=Need Your Love So Bad
TTITLE4=I Loved Another Woman
EXTD=
EXTT0=
EXTT1=
EXTT2=
EXTT3=
EXTT4=
PLAYORDER=
